<svg width="1000" height="1000" viewBox="0 0 1000 1000" fill="none" xmlns="http://www.w3.org/2000/svg">
<g clip-path="url(#clip0_19595_578)">
<path d="M1000 0H0V1000H1000V0Z" fill="white"/>
<path fill-rule="evenodd" clip-rule="evenodd" d="M401.026 34H549.98V71.2383H512.741V108.477H438.265V182.953H401.026V145.715H363.788V108.477H326.55V71.2383H401.026V34ZM587.218 34H624.456V108.477H661.694V182.953H624.456V145.715H587.218V34ZM549.98 145.715H587.218V182.953H549.98V145.715ZM475.503 182.953H512.741V220.192H549.98V369.145H512.741V331.906H475.503V369.145H438.265V443.621H512.741V480.86H475.503V592.575H512.741V555.336H549.98V629.813H438.265V667.051H289.311V629.813H326.55V592.575H363.788V555.336H438.265V518.098H401.026V480.86H363.788V406.383H401.026V369.145H363.788V331.906H401.026V294.668H438.265V257.43H401.026V220.192H475.503V182.953ZM475.503 257.43H512.741V294.668H475.503V257.43ZM326.55 220.192H363.788V257.43H326.55V220.192ZM587.218 220.192H624.456V443.621H587.218V406.383H549.98V369.145H587.218V220.192ZM363.788 257.43H401.026V294.668H363.788V257.43ZM326.55 294.668H363.788V331.906H326.55V294.668ZM177.596 331.906H252.073V369.145H289.311V406.383H252.073V443.621H214.835V369.145H177.596V331.906ZM289.311 331.906H326.55V369.145H289.311V331.906ZM698.933 331.906H773.409V369.145H885.124V406.383H922.363V369.145H959.601V480.86H885.124V443.621H810.648V406.383H698.933V480.86H661.694V518.098H587.218V480.86H624.456V443.621H661.694V369.145H698.933V331.906ZM885.124 331.906H922.363V369.145H885.124V331.906ZM28.6432 369.145H140.358V406.383H65.8816V592.575H28.6432V369.145ZM289.311 406.383H326.55V443.621H289.311V406.383ZM512.741 406.383H549.98V443.621H512.741V406.383ZM177.596 443.621H214.835V518.098H177.596V555.336H214.835V592.575H140.358V555.336H103.12V518.098H140.358V480.86H177.596V443.621ZM252.073 443.621H289.311V480.86H252.073V443.621ZM773.409 443.621H810.648V480.86H773.409V443.621ZM810.648 480.86H847.886V518.098H922.363V555.336H847.886V592.575H922.363V629.813H810.648V480.86ZM252.073 518.098H289.311V555.336H252.073V518.098ZM661.694 518.098H698.933V555.336H773.409V592.575H661.694V629.813H624.456V741.528H587.218V704.289H512.741V741.528H401.026V778.766H363.788V816.004H326.55V704.289H475.503V667.051H587.218V555.336H661.694V518.098ZM289.311 555.336H326.55V592.575H289.311V555.336ZM922.363 555.336H959.601V592.575H922.363V555.336ZM65.8816 592.575H103.12V629.813H214.835V592.575H289.311V629.813H252.073V667.051H28.6432V629.813H65.8816V592.575ZM661.694 667.051H773.409V778.766H661.694V667.051ZM698.933 704.289H736.171V741.528H698.933V704.289ZM810.648 667.051H847.886V741.528H885.124V816.004H847.886V778.766H810.648V667.051ZM885.124 667.051H922.363V704.289H885.124V667.051ZM512.741 741.528H587.218V778.766H512.741V741.528ZM922.363 741.528H959.601V778.766H922.363V741.528ZM401.026 778.766H475.503V816.004H438.265V927.719H401.026V853.243H363.788V816.004H401.026V778.766ZM587.218 778.766H624.456V816.004H661.694V853.243H587.218V890.481H549.98V816.004H587.218V778.766ZM736.171 816.004H773.409V927.719H736.171V964.958H624.456V927.719H587.218V890.481H661.694V853.243H698.933V890.481H736.171V816.004ZM475.503 853.243H512.741V890.481H475.503V853.243ZM810.648 853.243H847.886V927.719H810.648V853.243ZM922.363 853.243H959.601V927.719H885.124V890.481H922.363V853.243ZM438.265 927.719H512.741V964.958H438.265V927.719Z" fill="black"/>
<path fill-rule="evenodd" clip-rule="evenodd" d="M28.6432 34H289.311V294.668H28.6432V34ZM65.8816 71.2383H252.073V257.43H65.8816V71.2383ZM103.12 108.477H214.835V220.192H103.12V108.477ZM698.933 34H959.601V294.668H698.933V34ZM736.171 71.2383H922.363V257.43H736.171V71.2383ZM773.409 108.477H885.124V220.192H773.409V108.477ZM28.6432 704.289H289.311V964.958H28.6432V704.289ZM65.8816 741.528H252.073V927.719H65.8816V741.528ZM103.12 778.766H214.835V890.481H103.12V778.766Z" fill="black"/>
<rect x="601.033" y="877.447" width="371.489" height="88.5527" fill="white"/>
<path d="M722.241 887.616V890.873H713.438V915.111H710.18V890.873H701.377V887.616H722.24H722.241Z" fill="black"/>
<path d="M714.345 916.018H709.272V891.78H700.469V886.707H723.148V891.78H714.345V916.018ZM711.087 914.202H712.529V889.964H721.332V888.522H702.284V889.964H711.087V914.202Z" fill="black"/>
<path d="M745.275 903.011H730.927V915.111H727.669V887.653H730.927V899.792H745.275V887.653H748.533V915.111H745.275V903.011Z" fill="black"/>
<path d="M749.44 916.018H744.367V903.918H731.834V916.018H726.761V886.746H731.834V898.885H744.367V886.746H749.44V916.018ZM746.182 914.202H747.624V888.561H746.182V900.7H730.018V888.561H728.576V914.202H730.018V902.102H746.182V914.202Z" fill="black"/>
<path d="M774.281 890.871H759.933V899.752H773.157V903.009H759.933V911.85H774.281V915.108H756.675V887.613H774.281V890.87V890.871Z" fill="black"/>
<path d="M775.188 916.018H755.766V886.708H775.188V891.781H760.84V898.846H774.065V903.919H760.84V910.945H775.188V916.019V916.018ZM757.582 914.202H773.373V912.759H759.026V902.102H772.25V900.66H759.026V889.964H773.373V888.522H757.582V914.202Z" fill="black"/>
<path d="M814.921 914.217L812.401 915.924L810.694 913.984C808.755 915.071 806.351 915.652 803.946 915.652C798.441 915.652 792.972 912.743 792.972 907.003V895.757C792.972 890.018 798.441 887.148 803.946 887.148C809.452 887.148 814.883 890.018 814.883 895.757V907.003C814.883 908.943 814.146 910.726 813.099 912.045L814.922 914.216L814.921 914.217ZM811.005 909.331C811.471 908.671 811.665 907.934 811.665 907.004V895.758C811.665 891.958 807.786 890.329 803.909 890.329C800.07 890.367 796.23 892.035 796.23 895.758V907.004C796.192 910.649 800.069 912.434 803.909 912.434C805.77 912.434 807.206 912.162 808.756 911.387C807.515 909.72 807.282 909.603 806.118 908.052L808.756 906.385L811.005 909.333V909.331Z" fill="black"/>
<path d="M812.247 917.124L810.482 915.117C808.553 916.05 806.261 916.559 803.945 916.559C798.041 916.559 792.063 913.278 792.063 907.004V895.757C792.063 889.219 798.223 886.241 803.945 886.241C809.667 886.241 815.789 889.219 815.789 895.757V907.004C815.789 908.766 815.247 910.516 814.25 912.006L816.263 914.404L812.247 917.123V917.124ZM803.946 888.056C799.097 888.056 793.879 890.466 793.879 895.757V907.004C793.879 912.321 799.097 914.743 803.946 914.743C806.225 914.743 808.464 914.191 810.25 913.192L810.891 912.833L812.554 914.723L813.579 914.029L811.927 912.06L812.388 911.48C813.411 910.19 813.974 908.6 813.974 907.002V895.756C813.974 890.465 808.776 888.055 803.945 888.055L803.946 888.056ZM803.908 913.341C801.045 913.341 798.424 912.419 796.898 910.877C795.851 909.818 795.305 908.476 795.322 906.994V895.757C795.322 891.438 799.63 889.463 803.899 889.421C808.221 889.421 812.572 891.38 812.572 895.757V907.004C812.572 908.151 812.309 909.056 811.746 909.855L811.032 910.865L808.537 907.595L807.444 908.286C807.678 908.581 807.872 908.814 808.066 909.047C808.445 909.503 808.825 909.961 809.483 910.844L810.13 911.713L809.161 912.198C807.558 912.999 805.987 913.341 803.908 913.341ZM803.908 891.237C800.789 891.268 797.136 892.47 797.136 895.757V907.004C797.126 908.014 797.479 908.884 798.188 909.6C799.381 910.806 801.518 911.526 803.908 911.526C805.254 911.526 806.313 911.373 807.326 911.013C807.077 910.697 806.873 910.452 806.671 910.208C806.317 909.783 805.965 909.36 805.391 908.596L804.802 907.809L808.973 905.171L810.734 907.479C810.749 907.329 810.757 907.172 810.757 907.002V895.756C810.757 892.42 807.068 891.236 803.909 891.236L803.908 891.237Z" fill="black"/>
<path d="M842.804 915.112H838.81L829.929 903.904H825.702V915.112H822.444V887.654H832.915C838.189 887.654 842.183 890.02 842.299 895.876C842.299 901.343 838.653 903.632 833.962 903.864L842.803 915.111L842.804 915.112ZM832.954 900.879C836.677 900.879 839.042 899.639 839.042 895.877C839.042 892.116 836.521 890.835 832.954 890.913H825.702V900.881H832.954V900.879Z" fill="black"/>
<path d="M844.673 916.018H838.372L829.491 904.811H826.611V916.018H821.538V886.746H832.916C839.343 886.746 843.093 890.067 843.208 895.857C843.208 900.698 840.494 903.808 835.692 904.594L844.673 916.017V916.018ZM839.249 914.202H840.937L832.164 903.044L833.918 902.957C837.327 902.788 841.393 901.422 841.393 895.875C841.272 889.833 836.718 888.561 832.916 888.561H823.353V914.202H824.795V902.995H830.369L839.249 914.202ZM832.954 901.786H824.795V890.004H832.954C835.391 889.96 837.235 890.509 838.416 891.664C839.435 892.66 839.951 894.078 839.951 895.876C839.951 899.799 837.597 901.787 832.955 901.787L832.954 901.786ZM826.61 899.971H832.954C836.634 899.971 838.135 898.784 838.135 895.876C838.135 894.566 837.812 893.614 837.146 892.962C836.329 892.162 834.917 891.772 832.974 891.82H826.61V899.971Z" fill="black"/>
<path d="M870.648 887.381C874.603 887.381 878.598 889.165 880.343 892.887L877.434 894.361C876.153 891.918 873.323 890.638 870.531 890.638C867.002 890.638 863.434 892.383 863.434 895.951V906.809C863.434 910.377 867.002 912.122 870.531 912.122C873.361 912.122 876.192 910.882 877.434 908.439L880.343 909.795C878.559 913.518 874.486 915.379 870.531 915.379C865.373 915.379 860.177 912.51 860.177 906.809V895.951C860.177 890.29 865.412 887.381 870.648 887.381Z" fill="black"/>
<path d="M870.531 916.288C864.935 916.288 859.269 913.032 859.269 906.811V895.952C859.269 889.731 864.992 886.475 870.647 886.475C875.391 886.475 879.422 888.785 881.165 892.503L881.539 893.3L877.047 895.577L876.631 894.784C875.601 892.818 873.207 891.548 870.532 891.548C867.551 891.548 864.343 892.926 864.343 895.952V906.811C864.343 909.837 867.551 911.215 870.532 911.215C873.292 911.215 875.628 909.994 876.627 908.028L877.024 907.246L881.559 909.362L881.163 910.189C879.387 913.893 875.216 916.288 870.534 916.288H870.531ZM870.647 888.291C866.041 888.291 861.085 890.688 861.085 895.953V906.812C861.085 912.076 865.982 914.474 870.531 914.474C874.16 914.474 877.41 912.826 879.078 910.209L877.793 909.61C876.325 911.741 873.628 913.033 870.531 913.033C866.677 913.033 862.527 911.086 862.527 906.813V895.954C862.527 891.68 866.677 889.734 870.531 889.734C873.527 889.734 876.268 891.061 877.769 893.177L879.105 892.5C877.215 889.414 873.575 888.292 870.648 888.292L870.647 888.291Z" fill="black"/>
<path d="M896.319 886.995C901.788 886.995 907.295 889.864 907.295 895.604V907.121C907.295 912.862 901.788 915.77 896.319 915.77C890.851 915.77 885.344 912.862 885.344 907.121V895.604C885.344 889.864 890.812 886.995 896.319 886.995ZM888.564 907.121C888.564 910.728 892.402 912.551 896.319 912.551C900.236 912.551 904.036 910.728 904.075 907.121V895.604C904.075 891.802 900.158 890.174 896.28 890.174C892.402 890.212 888.562 891.881 888.562 895.604V907.121H888.564Z" fill="black"/>
<path d="M896.319 916.677C890.414 916.677 884.436 913.394 884.436 907.12V895.603C884.436 889.064 890.595 886.087 896.319 886.087C902.042 886.087 908.201 889.356 908.201 895.603V907.12C908.201 913.394 902.223 916.677 896.319 916.677ZM896.319 887.903C891.47 887.903 886.252 890.312 886.252 895.604V907.121C886.252 912.441 891.471 914.862 896.319 914.862C901.167 914.862 906.385 912.44 906.385 907.121V895.604C906.385 890.312 901.167 887.903 896.319 887.903ZM896.319 913.459C892.146 913.459 887.655 911.476 887.655 907.121V895.604C887.655 891.286 891.983 889.31 896.271 889.267C900.612 889.267 904.983 891.226 904.983 895.604V907.121C904.936 911.479 900.458 913.459 896.32 913.459H896.319ZM896.28 891.082C893.144 891.113 889.47 892.317 889.47 895.604V907.121C889.47 910.228 893.02 911.644 896.319 911.644C899.617 911.644 903.134 910.225 903.167 907.112V895.604C903.167 892.267 899.457 891.082 896.28 891.082Z" fill="black"/>
<path d="M914.815 915.111V887.653H924.122C929.357 887.653 934.554 890.097 934.554 895.915V906.888C934.554 912.667 929.358 915.11 924.122 915.11H914.815V915.111ZM924.122 911.852C927.728 911.852 931.296 910.456 931.296 906.888V895.915C931.296 892.307 927.728 890.912 924.122 890.912H918.033V911.853H924.122V911.852Z" fill="black"/>
<path d="M924.122 916.018H913.908V886.746H924.122C929.353 886.746 935.462 889.148 935.462 895.915V906.888C935.462 913.627 929.354 916.018 924.122 916.018ZM915.723 914.202H924.122C928.516 914.202 933.646 912.287 933.646 906.888V895.915C933.646 890.487 928.515 888.561 924.122 888.561H915.723V914.202ZM924.122 912.76H917.126V890.005H924.122C929.031 890.005 932.205 892.325 932.205 895.916V906.889C932.205 910.456 929.032 912.76 924.122 912.76ZM918.942 910.944H924.123C925.17 910.944 930.39 910.748 930.39 906.888V895.915C930.39 892.017 925.17 891.82 924.123 891.82H918.942V910.945V910.944Z" fill="black"/>
<path d="M959.373 890.871H945.025V899.752H958.249V903.009H945.025V911.85H959.373V915.108H941.767V887.613H959.373V890.87V890.871Z" fill="black"/>
<path d="M960.28 916.018H940.858V886.708H960.28V891.781H945.932V898.846H959.156V903.919H945.932V910.945H960.28V916.019V916.018ZM942.674 914.202H958.465V912.759H944.117V902.102H957.341V900.66H944.117V889.964H958.465V888.522H942.674V914.202Z" fill="black"/>
<path d="M701.573 934.021C701.573 927.717 707.358 924.479 713.143 924.479C717.504 924.479 721.951 926.552 723.938 930.697L720.656 932.251C719.318 929.531 716.123 928.106 713.058 928.106C709.129 928.106 705.156 930.05 705.156 934.021V946.326C705.156 950.384 709.172 952.328 713.143 952.328C717.115 952.328 721.175 950.384 721.175 946.326V943.261H712.15V939.677H724.758V946.326C724.758 952.803 718.973 955.997 713.143 955.997C707.314 955.997 701.573 952.803 701.573 946.326V934.021Z" fill="black"/>
<path d="M713.143 956.902C707.134 956.902 700.667 953.592 700.667 946.325V934.02C700.667 927.161 706.943 923.573 713.143 923.573C718.316 923.573 722.764 926.152 724.754 930.305L725.147 931.125L720.237 933.451L719.843 932.651C718.755 930.441 716.092 929.012 713.056 929.012C709.687 929.012 706.061 930.579 706.061 934.021V946.326C706.061 949.828 709.732 951.423 713.143 951.423C716.554 951.423 720.268 949.829 720.268 946.326V944.166H711.244V938.771H725.662V946.326C725.662 953.593 719.172 956.903 713.142 956.903L713.143 956.902ZM713.143 925.384C708.006 925.384 702.479 928.086 702.479 934.02V946.325C702.479 952.347 708.007 955.091 713.143 955.091C718.279 955.091 723.852 952.348 723.852 946.325V940.581H713.055V942.354H722.08V946.324C722.08 951.07 717.447 953.231 713.143 953.231C708.839 953.231 704.25 951.069 704.25 946.324V934.019C704.25 929.333 708.815 927.199 713.056 927.199C716.424 927.199 719.448 928.694 721.022 931.074L722.687 930.285C720.517 926.691 716.412 925.385 713.142 925.385L713.143 925.384Z" fill="black"/>
<path d="M753.168 928.581H737.193V938.469H751.916V942.095H737.193V951.939H753.168V955.566H733.566V924.954H753.168V928.581Z" fill="black"/>
<path d="M754.075 956.47H732.661V924.047H754.075V929.485H738.099V937.561H752.822V943H738.099V951.033H754.075V956.471V956.47ZM734.473 954.66H752.263V952.845H736.288V941.189H751.011V939.373H736.288V927.675H752.263V925.86H734.473V954.66Z" fill="black"/>
<path d="M765.475 924.996L781.191 950.254V924.996H784.818V955.565H780.241L765.215 931.343V955.565H761.588V924.996H765.474H765.475Z" fill="black"/>
<path d="M785.723 956.47H779.736L766.12 934.521V956.47H760.682V924.09H765.977L780.284 947.084V924.09H785.722V956.47H785.723ZM780.746 954.66H783.913V925.903H782.097V953.425L764.972 925.903H762.495V954.66H764.309V928.165L780.746 954.66Z" fill="black"/>
<path d="M814.179 928.58H798.203V938.468H812.926V942.094H798.203V951.938H814.179V955.565H794.577V924.953H814.179V928.58Z" fill="black"/>
<path d="M815.085 956.47H793.671V924.047H815.085V929.485H799.109V937.561H813.832V943H799.109V951.033H815.085V956.471V956.47ZM795.483 954.66H813.273V952.845H797.298V941.189H812.02V939.373H797.298V927.675H813.273V925.86H795.483V954.66Z" fill="black"/>
<path d="M845.267 955.564H840.819L830.932 943.087H826.225V955.564H822.598V924.995H834.256C840.128 924.995 844.575 927.629 844.704 934.148C844.704 940.236 840.646 942.783 835.422 943.043L845.266 955.564H845.267ZM834.299 939.718C838.444 939.718 841.078 938.336 841.078 934.148C841.078 929.96 838.272 928.535 834.299 928.622H826.225V939.718H834.299Z" fill="black"/>
<path d="M847.13 956.47H840.381L830.493 943.993H827.131V956.47H821.692V924.09H834.255C841.344 924.09 845.482 927.75 845.61 934.131C845.61 939.519 842.553 942.96 837.154 943.782L847.13 956.47ZM841.256 954.66H843.401L833.627 942.226L835.377 942.139C839.219 941.949 843.799 940.407 843.799 934.149C843.663 927.336 838.536 925.902 834.257 925.902H823.505V954.659H825.32V942.181H831.37L841.258 954.659L841.256 954.66ZM834.298 940.626H825.319V927.718H834.298C836.999 927.669 839.013 928.27 840.306 929.536C841.419 930.625 841.983 932.178 841.983 934.15C841.983 938.447 839.398 940.626 834.298 940.626ZM827.131 938.814H834.299C838.416 938.814 840.173 937.419 840.173 934.149C840.173 932.661 839.802 931.576 839.04 930.83C838.108 929.918 836.529 929.49 834.32 929.528H827.132V938.814H827.131Z" fill="black"/>
<path d="M860.638 924.995H865.041L876.095 955.564H872.295L868.754 945.763H856.967C855.844 948.959 854.593 952.369 853.513 955.564H849.67L860.637 924.995H860.638ZM867.503 942.136C865.82 937.43 864.568 933.76 862.84 928.881C861.286 933.371 859.818 937.559 858.177 942.136H867.503Z" fill="black"/>
<path d="M877.386 956.47H871.66L868.119 946.669H857.609C857.278 947.606 856.938 948.558 856.596 949.516C855.837 951.642 855.068 953.793 854.371 955.854L854.164 956.47H848.383L860 924.09H865.678L877.386 956.47ZM872.932 954.66H874.805L864.407 925.903H861.276L850.959 954.66H852.866C853.508 952.778 854.203 950.832 854.891 948.907C855.306 947.745 855.718 946.591 856.115 945.464L856.328 944.859H869.392L872.933 954.66H872.932ZM868.789 943.043H856.89L857.325 941.831C858.965 937.257 860.431 933.072 861.986 928.585L862.832 926.14L863.696 928.579C864.441 930.686 865.099 932.568 865.741 934.405C866.585 936.82 867.402 939.158 868.357 941.831L868.791 943.042L868.789 943.043ZM859.463 941.232H866.218C865.441 939.045 864.745 937.053 864.029 935.004C863.645 933.907 863.257 932.794 862.846 931.626C861.731 934.833 860.637 937.945 859.463 941.231V941.232Z" fill="black"/>
<path d="M899.066 924.953V928.58H889.265V955.565H885.638V928.58H875.837V924.953H899.066Z" fill="black"/>
<path d="M890.169 956.47H884.731V929.485H874.93V924.047H899.97V929.485H890.169V956.47ZM886.543 954.66H888.358V927.675H898.159V925.86H876.742V927.675H886.543V954.66Z" fill="black"/>
<path d="M915.906 924.264C921.993 924.264 928.125 927.46 928.125 933.849V946.673C928.125 953.062 921.994 956.301 915.906 956.301C909.817 956.301 903.687 953.062 903.687 946.673V933.849C903.687 927.46 909.774 924.264 915.906 924.264ZM907.27 946.672C907.27 950.687 911.545 952.716 915.906 952.716C920.266 952.716 924.498 950.687 924.541 946.672V933.848C924.541 929.617 920.181 927.804 915.863 927.804C911.545 927.847 907.27 929.703 907.27 933.848V946.672Z" fill="black"/>
<path d="M915.905 957.206C909.384 957.206 902.781 953.588 902.781 946.672V933.848C902.781 926.64 909.584 923.357 915.905 923.357C922.227 923.357 929.03 926.961 929.03 933.848V946.672C929.03 953.588 922.427 957.206 915.905 957.206ZM915.905 925.168C910.456 925.168 904.593 927.884 904.593 933.847V946.671C904.593 952.664 910.457 955.393 915.905 955.393C921.353 955.393 927.218 952.663 927.218 946.671V933.847C927.218 927.884 921.353 925.168 915.905 925.168ZM915.905 953.622C911.31 953.622 906.365 951.447 906.365 946.671V933.847C906.365 929.112 911.13 926.944 915.853 926.896C920.633 926.896 925.446 929.045 925.446 933.847V946.671C925.395 951.449 920.464 953.622 915.905 953.622ZM915.862 928.709C912.322 928.745 908.176 930.113 908.176 933.848V946.672C908.176 950.203 912.183 951.811 915.906 951.811C919.629 951.811 923.598 950.2 923.636 946.662V933.848C923.636 930.055 919.449 928.709 915.864 928.709H915.862Z" fill="black"/>
<path d="M959.859 955.564H955.412L945.524 943.087H940.817V955.564H937.191V924.995H948.848C954.721 924.995 959.167 927.629 959.296 934.148C959.296 940.236 955.238 942.783 950.014 943.043L959.858 955.564H959.859ZM948.892 939.718C953.037 939.718 955.671 938.336 955.671 934.148C955.671 929.96 952.865 928.535 948.892 928.622H940.818V939.718H948.892Z" fill="black"/>
<path d="M961.723 956.47H954.974L945.086 943.993H941.724V956.47H936.286V924.09H948.849C955.937 924.09 960.076 927.75 960.203 934.131C960.203 939.519 957.146 942.96 951.747 943.782L961.723 956.47ZM955.849 954.66H957.994L948.22 942.226L949.97 942.139C953.812 941.949 958.392 940.407 958.392 934.149C958.256 927.336 953.129 925.902 948.85 925.902H938.098V954.659H939.913V942.181H945.963L955.851 954.659L955.849 954.66ZM948.891 940.626H939.912V927.718H948.891C951.583 927.669 953.606 928.27 954.899 929.536C956.012 930.625 956.576 932.178 956.576 934.15C956.576 938.447 953.991 940.626 948.891 940.626ZM941.723 938.814H948.891C953.008 938.814 954.765 937.419 954.765 934.149C954.765 932.661 954.394 931.576 953.632 930.83C952.7 929.918 951.122 929.49 948.912 929.528H941.724V938.814H941.723Z" fill="black"/>
<path d="M673.125 932.985H661.355C660.5 932.985 659.807 933.678 659.807 934.533V946.304C659.807 947.159 660.5 947.852 661.355 947.852H673.125C673.98 947.852 674.674 947.159 674.674 946.304V934.533C674.674 933.678 673.98 932.985 673.125 932.985Z" fill="#060606"/>
<path opacity="0.91" d="M682.943 909.868L633.908 956.292L612.503 934.887L660.233 887.463L682.943 909.868Z" fill="url(#paint0_linear_19595_578)"/>
<path d="M669.415 937.013H665.067C664.387 937.013 663.836 937.564 663.836 938.244V942.591C663.836 943.271 664.387 943.822 665.067 943.822H669.415C670.095 943.822 670.646 943.271 670.646 942.591V938.244C670.646 937.564 670.095 937.013 669.415 937.013Z" fill="white"/>
<path d="M681.357 886.937H661.567C660.476 886.937 659.592 887.821 659.592 888.911V908.702C659.592 909.792 660.476 910.676 661.567 910.676H681.357C682.448 910.676 683.332 909.792 683.332 908.702V888.911C683.332 887.821 682.448 886.937 681.357 886.937Z" fill="#060606"/>
<path d="M677.867 890.427H665.058C663.968 890.427 663.084 891.311 663.084 892.401V905.21C663.084 906.3 663.968 907.184 665.058 907.184H677.867C678.957 907.184 679.841 906.3 679.841 905.21V892.401C679.841 891.311 678.957 890.427 677.867 890.427Z" fill="#F5F5F5"/>
<path d="M674.898 893.464H668.269C667.179 893.464 666.295 894.348 666.295 895.438V902.067C666.295 903.158 667.179 904.042 668.269 904.042H674.898C675.989 904.042 676.873 903.158 676.873 902.067V895.438C676.873 894.348 675.989 893.464 674.898 893.464Z" fill="#060606"/>
<path d="M633.597 886.937H613.807C612.716 886.937 611.832 887.821 611.832 888.911V908.702C611.832 909.792 612.716 910.676 613.807 910.676H633.597C634.688 910.676 635.572 909.792 635.572 908.702V888.911C635.572 887.821 634.688 886.937 633.597 886.937Z" fill="#060606"/>
<path d="M630.106 890.427H617.298C616.207 890.427 615.323 891.311 615.323 892.401V905.21C615.323 906.3 616.207 907.184 617.298 907.184H630.106C631.196 907.184 632.081 906.3 632.081 905.21V892.401C632.081 891.311 631.196 890.427 630.106 890.427Z" fill="#F5F5F5"/>
<path d="M627.138 893.464H620.509C619.418 893.464 618.534 894.348 618.534 895.438V902.067C618.534 903.158 619.418 904.042 620.509 904.042H627.138C628.228 904.042 629.112 903.158 629.112 902.067V895.438C629.112 894.348 628.228 893.464 627.138 893.464Z" fill="#060606"/>
<path d="M633.597 932.768H613.807C612.716 932.768 611.832 933.652 611.832 934.742V954.533C611.832 955.623 612.716 956.507 613.807 956.507H633.597C634.688 956.507 635.572 955.623 635.572 954.533V934.742C635.572 933.652 634.688 932.768 633.597 932.768Z" fill="#060606"/>
<path d="M630.106 936.259H617.298C616.207 936.259 615.323 937.143 615.323 938.233V951.042C615.323 952.132 616.207 953.016 617.298 953.016H630.106C631.196 953.016 632.081 952.132 632.081 951.042V938.233C632.081 937.143 631.196 936.259 630.106 936.259Z" fill="#F5F5F5"/>
<path d="M627.138 939.296H620.509C619.418 939.296 618.534 940.18 618.534 941.27V947.899C618.534 948.99 619.418 949.874 620.509 949.874H627.138C628.228 949.874 629.112 948.99 629.112 947.899V941.27C629.112 940.18 628.228 939.296 627.138 939.296Z" fill="#060606"/>
</g>
<defs>
<linearGradient id="paint0_linear_19595_578" x1="623.735" y1="943.321" x2="668.469" y2="902.214" gradientUnits="userSpaceOnUse">
<stop stop-color="white" stop-opacity="0"/>
<stop offset="1" stop-color="#FA1F31"/>
</linearGradient>
<clipPath id="clip0_19595_578">
<rect width="1000" height="1000" fill="white"/>
</clipPath>
</defs>
</svg>
